<svg width="130" height="82" viewBox="0 0 130 82" fill="none" xmlns="http://www.w3.org/2000/svg">
<path fill-rule="evenodd" clip-rule="evenodd" d="M102.686 40.5675L95.8141 30.4783C96.9503 30.6885 98.0743 30.8071 99.1853 30.8367C97.3155 24.3818 93.7419 18.6456 88.9799 14.1414C88.9799 14.1414 89.2811 13.7653 89.3662 12.9828V12.98L89.368 12.9617L89.3858 12.7637C89.3954 12.6271 89.3926 12.4872 89.3806 12.3503C89.3293 11.3248 88.9031 9.84715 87.5074 7.88671C95.0525 13.3617 100.669 21.3116 103.142 30.5391C104.334 30.3249 105.509 30.0001 106.669 29.5598L102.686 40.5675ZM23.6881 41.3598L30.5604 51.4486C29.3545 51.2259 28.1624 51.1045 26.9862 51.0871C31.3463 66.8893 45.8838 78.4995 63.1498 78.4995C66.6644 78.4995 70.0645 78.0176 73.2892 77.1184L73.639 81.0383C66.9193 82.5139 54.7915 82.6905 45.952 78.666C34.7227 73.5547 26.2013 63.5786 23.0657 51.419C21.9313 51.6329 20.8113 51.9491 19.707 52.3683L23.6881 41.3598ZM63.1498 0C65.8952 0 68.5776 0.268889 71.1746 0.776112C71.2047 0.935918 71.2456 1.09603 71.2987 1.25584C71.1998 1.43336 71.1175 1.62036 71.0536 1.81409C70.5218 2.16425 70.1072 2.65253 69.8621 3.20987C69.5996 3.55667 69.4036 3.95603 69.2894 4.37434C67.2903 4.04648 65.2401 3.87292 63.1498 3.87292C53.822 3.87292 45.2911 7.26215 38.7314 12.87L36.2735 9.86335C43.5054 3.71495 52.8909 0 63.1498 0Z" fill="url(#paint0_linear_27_38)"/>
<path fill-rule="evenodd" clip-rule="evenodd" d="M126.353 75.8528C126.353 75.4094 126.23 75.0788 125.985 74.8609C125.743 74.644 125.363 74.5361 124.854 74.5361H124.096V77.1887H124.766C125.314 77.1887 125.715 77.0768 125.971 76.8559C126.225 76.6325 126.353 76.2976 126.353 75.8528ZM130 75.5903C130 76.8736 129.595 77.8679 128.786 78.5795C127.977 79.2909 126.827 79.6447 125.338 79.6447H120.646V68.2542H124.096V72.0788H125.54C126.571 72.0788 127.416 72.2032 128.072 72.455C128.729 72.7083 129.216 73.0814 129.528 73.581C129.84 74.0799 130 74.7506 130 75.5903ZM115.626 72.1271C115.626 71.6605 115.49 71.3088 115.221 71.0687C114.949 70.8306 114.55 70.7121 114.024 70.7121H113.37V73.5266H114.145C115.134 73.5266 115.626 73.0591 115.626 72.1271ZM119.273 72.0113C119.273 72.7893 119.076 73.4795 118.68 74.0848C118.285 74.6901 117.718 75.1567 116.986 75.4882C116.251 75.8179 115.396 75.9854 114.42 75.9854H113.37V79.6447H109.92V68.2542H114.613C116.224 68.2542 117.405 68.5576 118.153 69.169C118.901 69.7771 119.273 70.7268 119.273 72.0113ZM100.895 79.6447V68.2542H108.022V70.9397H104.346V72.5995H107.796V75.2829H104.346V76.9601H108.286V79.6447H100.895ZM95.7085 76.136C95.7085 75.8063 95.5902 75.5362 95.351 75.3254C95.1109 75.1133 94.7949 75.0082 94.4027 75.0082H93.0436V77.335H94.1954C94.6604 77.335 95.0313 77.2271 95.3056 77.0123C95.5736 76.7972 95.7085 76.5042 95.7085 76.136ZM95.351 71.6037C95.351 70.9009 94.7949 70.5483 93.6829 70.5483H93.0436V72.697H94.0431C94.4239 72.697 94.7399 72.5937 94.9828 72.3902C95.2269 72.1879 95.351 71.9276 95.351 71.6037ZM99.3732 76.1485C99.3732 77.2675 98.9811 78.1285 98.1943 78.7366C97.4057 79.341 96.2793 79.6447 94.8173 79.6447H89.5931V68.2542H94.4571C97.4957 68.2542 99.0136 69.1739 99.0136 71.0091C99.0136 71.4091 98.9178 71.7727 98.7244 72.1033C98.5334 72.4339 98.2416 72.7236 97.8495 72.9735C97.4589 73.2231 97.0299 73.3909 96.5609 73.4795V73.5134C97.1023 73.5758 97.5918 73.735 98.0236 73.9935C98.4547 74.2516 98.787 74.5706 99.0225 74.9532C99.2569 75.3388 99.3732 75.737 99.3732 76.1485ZM84.98 70.9397V79.6447H81.5118V70.9397H78.3073V68.2542H88.2174V70.9397H84.98Z" fill="url(#paint1_linear_27_38)"/>
<path fill-rule="evenodd" clip-rule="evenodd" d="M57.2746 28.6114C57.2746 26.7808 56.9218 25.3388 56.2136 24.2835C55.5055 23.229 54.5397 22.6967 53.3144 22.6967C51.9709 22.6967 50.9265 23.2067 50.1797 24.219C49.4288 25.2328 49.0548 26.6653 49.0548 28.5218C49.0548 30.3301 49.4288 31.7457 50.1689 32.7599C50.9157 33.771 51.9233 34.2809 53.202 34.2809C53.9857 34.2809 54.6843 34.0536 55.3071 33.5974C55.9308 33.1406 56.416 32.4879 56.7562 31.6397C57.1032 30.7906 57.2746 29.7832 57.2746 28.6114ZM64.438 28.4204C64.438 30.6577 63.9538 32.6587 62.9889 34.4246C62.0185 36.1894 60.6642 37.5648 58.9261 38.5413C57.1892 39.5215 55.2429 40.0095 53.0847 40.0095C50.9845 40.0095 49.0701 39.5371 47.3489 38.5887C45.6265 37.639 44.2848 36.3068 43.3242 34.5941C42.3707 32.8803 41.891 30.9409 41.891 28.776C41.891 26.5061 42.3759 24.4695 43.3408 22.6555C44.3109 20.8414 45.671 19.4407 47.4183 18.4547C49.1663 17.4637 51.155 16.9694 53.3832 16.9694C55.5257 16.9694 57.4438 17.4417 59.1343 18.392C60.8298 19.3408 62.1355 20.6929 63.0577 22.448C63.9799 24.2043 64.438 26.1929 64.438 28.4204ZM33.4477 39.6266L28.4741 30.218C28.144 29.4703 27.9471 28.9621 27.8829 28.6798H27.8188V39.6266H21.0708V17.3522H27.8188V27.9483H27.8829C28.0801 27.3913 28.3043 26.8724 28.5542 26.3942L33.0267 17.3522H41.0275L34.6625 27.9749L41.6352 39.6266H33.4477ZM17.9093 28.267C17.9093 30.6161 17.4352 32.6896 16.4814 34.4881C15.5267 36.2808 14.1733 37.6543 12.414 38.5933C10.6553 39.5371 8.58126 40.0095 6.19856 40.0095C5.14894 40.0095 4.11958 39.935 3.12308 39.7913C2.12105 39.648 1.08095 39.3886 0 39.0177V33.455C1.66349 34.2809 3.33712 34.6944 5.01044 34.6944C6.58242 34.6944 7.80801 34.4081 8.68843 33.8412C9.56209 33.2738 10.1428 32.3831 10.4253 31.1627H2.30224V26.0703H10.522C10.1652 24.7662 9.55227 23.812 8.6829 23.2009C7.81354 22.5907 6.62511 22.2842 5.11761 22.2842C3.1501 22.2842 1.44515 22.6555 0 23.3976V17.8234C2.20673 17.2557 4.24334 16.9694 6.10337 16.9694C9.97881 16.9694 12.9161 17.9294 14.914 19.8495C16.9132 21.7742 17.9093 24.5743 17.9093 28.267Z" fill="url(#paint2_linear_27_38)"/>
<path fill-rule="evenodd" clip-rule="evenodd" d="M122.069 57.9279C122.069 57.2872 121.833 56.7558 121.366 56.3433C120.896 55.9287 120.278 55.7224 119.51 55.7224H116.857V60.2731H119.105C120.018 60.2731 120.741 60.061 121.275 59.6427C121.803 59.2226 122.069 58.649 122.069 57.9279ZM121.366 49.065C121.366 47.6933 120.278 47.0043 118.103 47.0043H116.857V51.2029H118.808C119.554 51.2029 120.172 51.0013 120.647 50.6044C121.127 50.2053 121.366 49.6972 121.366 49.065ZM129.234 57.9539C129.234 60.1401 128.466 61.8271 126.925 63.0154C125.384 64.1973 123.184 64.7919 120.323 64.7919H110.108V42.5154H119.616C125.562 42.5154 128.53 44.3142 128.53 47.9054C128.53 48.6833 128.342 49.395 127.964 50.0415C127.591 50.689 127.022 51.257 126.254 51.7456C125.491 52.2314 124.65 52.5611 123.731 52.7374V52.7992C124.792 52.9226 125.748 53.2349 126.596 53.7381C127.437 54.2411 128.088 54.8675 128.546 55.6158C129.005 56.3696 129.234 57.1494 129.234 57.9539ZM92.4586 64.7919V42.5154H106.398V47.7667H99.2074V51.012H105.956V56.2636H99.2074V59.5419H106.915V64.7919H92.4586ZM82.6462 50.0895C82.6462 49.1786 82.3799 48.4887 81.8517 48.0212C81.3183 47.5537 80.5411 47.3212 79.5127 47.3212H78.2318V52.8264H79.7448C81.6813 52.8264 82.6462 51.9143 82.6462 50.0895ZM89.7771 49.8612C89.7771 51.3841 89.3886 52.7374 88.6166 53.9181C87.8436 55.1027 86.7341 56.0139 85.3006 56.6617C83.8678 57.3092 82.1938 57.6321 80.2914 57.6321H78.2318V64.7919H71.4848V42.5154H80.6633C83.8134 42.5154 86.1209 43.1103 87.5869 44.3023C89.0477 45.4921 89.7771 47.3484 89.7771 49.8612ZM58.2711 47.9576H55.7699C55.456 51.7496 54.438 55.58 52.7051 59.4441H58.2711V47.9576ZM62.4282 71.0293V64.7919H49.6671V71.0293H43.7188V59.4441H45.9366C48.6218 54.7144 50.0992 49.0726 50.3713 42.5154H65.0184V59.4441H68.5039V71.0293H62.4282Z" fill="url(#paint3_linear_27_38)"/>
<path fill-rule="evenodd" clip-rule="evenodd" d="M74.942 7.26582C76.5305 5.4829 77.7193 3.4867 78.5254 1.28609C79.2344 3.31773 80.3661 5.45662 82.251 7.3969C81.4713 7.24076 80.8638 7.12801 80.3406 7.05071C81.3939 8.98365 82.7481 10.9044 84.509 12.7169C83.0792 12.4312 82.0059 12.2348 81.0846 12.1125C82.6317 14.979 84.6333 17.8292 87.2457 20.5175C85.5546 20.1801 84.2022 19.9256 83.0337 19.7472C84.8591 22.7731 87.1005 25.762 89.8701 28.6101C87.9781 28.2343 86.4166 27.9376 85.0488 27.713C86.9408 30.5767 89.1678 33.3982 91.8035 36.1094C79.8188 33.7199 75.2917 33.8229 65.3906 35.6391C67.6339 33.1214 69.6558 30.485 71.4593 27.735C70.2448 27.8728 68.8837 28.0329 67.325 28.2095C69.6877 25.5576 71.7627 22.7517 73.5579 19.7964C72.5175 19.9131 71.3318 20.0518 69.9463 20.2101C72.1773 17.7057 74.0741 15.0242 75.6455 12.17C74.8191 12.2598 73.8592 12.3726 72.6812 12.5067C74.1893 10.8167 75.4717 9.00779 76.5407 7.08371C76.0813 7.13473 75.5611 7.19646 74.942 7.26582Z" fill="url(#paint4_linear_27_38)"/>
<defs>
<linearGradient id="paint0_linear_27_38" x1="19" y1="6.00001" x2="127" y2="105" gradientUnits="userSpaceOnUse">
<stop stop-color="#008F52"/>
<stop offset="0.234375" stop-color="#006633"/>
<stop offset="0.453125" stop-color="#006633"/>
<stop offset="1" stop-color="#008F39"/>
</linearGradient>
<linearGradient id="paint1_linear_27_38" x1="19" y1="6.00001" x2="127" y2="105" gradientUnits="userSpaceOnUse">
<stop stop-color="#008F52"/>
<stop offset="0.234375" stop-color="#006633"/>
<stop offset="0.453125" stop-color="#006633"/>
<stop offset="1" stop-color="#008F39"/>
</linearGradient>
<linearGradient id="paint2_linear_27_38" x1="19" y1="6.00001" x2="127" y2="105" gradientUnits="userSpaceOnUse">
<stop stop-color="#008F52"/>
<stop offset="0.234375" stop-color="#006633"/>
<stop offset="0.453125" stop-color="#006633"/>
<stop offset="1" stop-color="#008F39"/>
</linearGradient>
<linearGradient id="paint3_linear_27_38" x1="19" y1="6.00001" x2="127" y2="105" gradientUnits="userSpaceOnUse">
<stop stop-color="#008F52"/>
<stop offset="0.234375" stop-color="#006633"/>
<stop offset="0.453125" stop-color="#006633"/>
<stop offset="1" stop-color="#008F39"/>
</linearGradient>
<linearGradient id="paint4_linear_27_38" x1="19" y1="6.00001" x2="127" y2="105" gradientUnits="userSpaceOnUse">
<stop stop-color="#008F52"/>
<stop offset="0.234375" stop-color="#006633"/>
<stop offset="0.453125" stop-color="#006633"/>
<stop offset="1" stop-color="#008F39"/>
</linearGradient>
</defs>
</svg>
