<svg width="15" height="14" viewBox="0 0 15 14" fill="none" xmlns="http://www.w3.org/2000/svg">
<path fill-rule="evenodd" clip-rule="evenodd" d="M14.959 1.27304L12.7444 12.5794C12.7444 12.5794 12.4349 13.3628 11.583 12.9872L8.43255 10.5411L6.41118 12.407C6.41118 12.407 6.25335 12.5284 6.0806 12.4523L6.48885 8.92576C6.48885 8.92576 12.1559 3.76689 12.3883 3.54727C12.6207 3.32765 12.5437 3.28108 12.5437 3.28108C12.5592 3.01427 12.1255 3.28108 12.1255 3.28108L4.61599 8.11084L1.48793 7.0442C1.48793 7.0442 1.00822 6.87177 0.961613 6.49546C0.915009 6.11915 1.50346 5.91526 1.50346 5.91526L13.9374 0.976014C13.9374 0.976014 14.959 0.519783 14.959 1.27304Z" fill="white"/>
</svg>
