<svg width="16" height="9" viewBox="0 0 16 9" fill="none" xmlns="http://www.w3.org/2000/svg">
<path fill-rule="evenodd" clip-rule="evenodd" d="M7.83873 8.96387H8.73465C8.73465 8.96387 9.00659 8.93398 9.14563 8.78237C9.27233 8.6439 9.26826 8.38176 9.26826 8.38176C9.26826 8.38176 9.25178 7.16104 9.80793 6.98093C10.3593 6.80355 11.0649 8.16134 11.8148 8.6836C12.3813 9.07945 12.8121 8.99174 12.8121 8.99174L14.8148 8.96387C14.8148 8.96387 15.8634 8.89849 15.3662 8.06179C15.3265 7.99369 15.0765 7.44279 13.8765 6.31181C12.6203 5.12798 12.7895 5.31859 14.3018 3.2709C15.2238 2.02449 15.5916 1.26298 15.4765 0.936624C15.3669 0.625761 14.6895 0.708497 14.6895 0.708497L12.4347 0.722429C12.4347 0.722429 12.2669 0.700169 12.143 0.774577C12.0217 0.848985 11.9429 1.02084 11.9429 1.02084C11.9429 1.02084 11.5867 1.98487 11.1107 2.80624C10.1059 4.53816 9.70522 4.62931 9.54082 4.52213C9.15797 4.27174 9.25454 3.51568 9.25454 2.97809C9.25454 1.29979 9.50587 0.600077 8.76615 0.418494C8.52157 0.358641 8.33939 0.319102 7.71342 0.312097C6.90863 0.304469 6.22709 0.314198 5.84079 0.506833C5.58457 0.633467 5.38666 0.918645 5.50792 0.9346C5.65654 0.955382 5.99424 1.02777 6.1729 1.27473C6.40514 1.594 6.39556 2.31107 6.39556 2.31107C6.39556 2.31107 6.52908 4.28638 6.08599 4.53186C5.78185 4.70021 5.36474 4.35736 4.47021 2.78538C4.01056 1.98059 3.66473 1.09104 3.66473 1.09104C3.66473 1.09104 3.59828 0.924871 3.47909 0.836454C3.33461 0.727877 3.13119 0.694487 3.13119 0.694487L0.988701 0.708419C0.988701 0.708419 0.666786 0.716825 0.548291 0.858714C0.444206 0.98667 0.54078 1.24686 0.54078 1.24686C0.54078 1.24686 2.21887 5.23367 4.11894 7.24237C5.86141 9.0842 7.83881 8.96379 7.83881 8.96379L7.83873 8.96387Z" fill="white"/>
</svg>
