<svg width="14" height="16" viewBox="0 0 14 16" fill="none" xmlns="http://www.w3.org/2000/svg">
<path fill-rule="evenodd" clip-rule="evenodd" d="M7.12083 1.61759C5.40507 1.61759 3.8509 2.31238 2.72894 3.43433C1.60395 4.55629 0.912199 6.11147 0.912199 7.82925C0.912199 8.4079 0.991978 8.97039 1.13639 9.49552C1.28686 10.0408 1.51509 10.5599 1.80088 11.0376C1.85541 11.1264 1.86046 11.2305 1.82915 11.3213L0.858677 14.2035L3.85594 13.2431C3.95289 13.2118 4.05186 13.2259 4.13164 13.2764C4.58103 13.5239 5.06374 13.7167 5.56564 13.847C6.05643 13.9743 6.57954 14.0429 7.12184 14.0429C8.83759 14.0429 10.3918 13.3481 11.5137 12.2262C12.6377 11.1042 13.3305 9.54904 13.3305 7.8343C13.3305 6.11955 12.6347 4.56437 11.5137 3.43938C10.3887 2.3144 8.83658 1.61961 7.12184 1.61961L7.12083 1.61759ZM2.25733 2.96576C3.50451 1.71959 5.22431 0.950073 7.12083 0.950073C9.02038 0.950073 10.7412 1.72262 11.9843 2.96576C13.2315 4.21193 14 5.93273 14 7.82925C14 9.72375 13.2335 11.4405 11.9894 12.6837L11.9833 12.6897C10.7371 13.9359 9.01634 14.7054 7.11982 14.7054C6.52905 14.7054 5.95242 14.6286 5.40204 14.4863C4.88196 14.353 4.38511 14.1591 3.9226 13.9157L0.433524 15.0336C0.367883 15.0538 0.294164 15.0568 0.226503 15.0336C0.0538171 14.974 -0.0401004 14.7862 0.0164518 14.6135L1.14952 11.2466C0.868775 10.7578 0.647615 10.2277 0.491086 9.67023C0.326479 9.08249 0.238621 8.46041 0.238621 7.82723C0.238621 5.93374 1.00511 4.21597 2.24926 2.9698L2.2543 2.96374L2.25733 2.96576ZM2.30581 12.7725L4.1993 12.1646L4.60627 12.3888C5.37882 12.8149 6.23518 13.0361 7.11881 13.0361C9.99287 13.0361 12.3196 10.7084 12.3196 7.8343C12.3196 4.96124 9.99186 2.63351 7.11881 2.63351C4.24575 2.63351 1.92105 4.96124 1.92105 7.8343C1.92105 8.78256 2.17655 9.70557 2.66532 10.5175L2.92384 10.9437L2.30985 12.7685L2.30581 12.7725ZM5.59392 5.24299C5.49192 4.99861 5.41517 4.99053 5.25965 4.98144C5.20512 4.97841 5.14655 4.97538 5.08293 4.97538C4.88095 4.97538 4.6709 5.03496 4.54669 5.16321C4.39319 5.31873 4.00742 5.68834 4.00742 6.44675C4.00742 7.20213 4.5578 7.93427 4.63455 8.03627C4.7113 8.13827 5.71005 9.71466 7.2612 10.359C8.47303 10.8609 8.83153 10.8154 9.10924 10.7568C9.50915 10.669 10.0181 10.3731 10.1423 10.0126C10.2696 9.65508 10.2696 9.34606 10.2332 9.28244C10.1959 9.21983 10.0939 9.18044 9.93834 9.10369C9.78484 9.02796 9.02946 8.6543 8.88808 8.60381C8.7467 8.55231 8.61542 8.57049 8.50737 8.71692C8.3569 8.92394 8.21552 9.13702 8.09332 9.26527C7.99941 9.36424 7.84894 9.37838 7.72169 9.32485C7.55103 9.25113 7.07134 9.0835 6.4836 8.5614C6.02715 8.15543 5.71712 7.6505 5.62926 7.497C5.5414 7.34351 5.62118 7.24959 5.69187 7.16779C5.77165 7.07084 5.84234 7.00318 5.91808 6.91229C5.99483 6.82141 6.03725 6.77293 6.08875 6.67195C6.14025 6.56995 6.10592 6.46493 6.06552 6.38515C6.02614 6.3084 5.71914 5.55403 5.5919 5.244L5.59392 5.24299Z" fill="white"/>
</svg>
